<?xml version="1.0" encoding="UTF-8" standalone="no"?>
<!DOCTYPE svg PUBLIC "-//W3C//DTD SVG 1.1//EN" "http://www.w3.org/Graphics/SVG/1.1/DTD/svg11.dtd">
<svg width="394.00" height="928.00" viewBox="0.00 0.00 394.00 928.00" xmlns="http://www.w3.org/2000/svg" xmlns:xlink="http://www.w3.org/1999/xlink">
<g stroke-linecap="round" transform="translate(-527.00, -34.00)" id="Lattissimus_Dorsi">
<path d="M623.80,296.77 C624.24,295.28 625.74,293.11 626.98,292.32 C629.52,290.82 635.58,290.79 642.77,291.71 C646.69,292.20 654.73,292.71 658.11,292.70 C665.15,292.63 672.27,290.32 673.37,290.53 C674.75,290.82 677.06,292.25 678.31,293.49 C680.96,296.22 691.43,312.51 695.36,318.78 C699.86,325.61 708.66,337.12 710.48,339.12 C711.86,340.70 712.83,342.57 713.11,344.57 C713.60,348.46 712.25,355.94 710.70,361.32 C706.25,376.20 693.81,405.81 689.97,412.16 C688.07,415.27 684.57,419.55 682.72,421.01 C681.75,421.75 679.87,422.56 678.74,422.67 C677.66,422.75 675.47,422.05 674.44,421.31 C672.37,419.72 668.74,413.53 666.84,408.32 C663.72,399.45 657.92,383.02 655.25,375.45 C654.01,371.82 649.66,359.31 644.78,349.20 C641.84,342.90 634.09,327.43 629.82,319.10 C627.69,314.84 624.83,307.42 624.14,304.38 C623.54,301.62 623.58,297.63 623.80,296.77 Z" fill="none" stroke="rgb(10, 10, 10)" stroke-width="3.00" stroke-opacity="1.00" stroke-linejoin="miter"/>
</g>
<g stroke-linecap="round" transform="translate(-527.00, -34.00)" id="Spinal_Erectors">
<path d="M710.07,459.83 C708.62,457.35 698.11,414.55 694.18,397.89 C692.01,388.42 689.38,370.57 688.13,367.43 C686.21,362.71 679.38,354.17 674.17,349.54 C671.61,347.10 668.33,340.28 667.25,335.19 C665.79,328.10 665.59,311.71 666.03,303.25 C667.19,287.37 672.35,250.23 674.87,232.65 C677.67,213.32 681.42,190.77 681.94,188.87 C682.58,186.57 684.81,181.49 686.61,179.26 C688.64,176.81 694.57,171.96 695.98,170.21 C698.06,167.60 702.54,158.74 704.08,154.48 C705.43,150.68 708.93,137.81 709.65,136.48 C710.45,135.11 710.80,138.30 710.78,141.65 C710.67,148.05 706.97,196.28 706.97,208.61 C707.01,213.36 707.68,222.81 708.66,225.97 C709.14,227.48 712.28,231.45 713.33,234.77 C714.91,239.92 715.61,253.96 715.87,259.82 C716.75,291.85 718.16,364.05 718.70,404.22 C718.63,431.67 718.60,463.65 718.46,463.91 C717.81,464.94 714.66,464.44 712.81,462.95 C711.67,462.00 710.76,460.96 710.07,459.83 Z" fill="none" stroke="rgb(10, 10, 10)" stroke-width="3.00" stroke-opacity="1.00" stroke-linejoin="miter"/>
</g>
<g stroke-linecap="round" transform="translate(-527.00, -34.00)" id="Glutes">
<path d="M657.87,423.47 C659.76,423.52 665.94,425.74 669.25,427.61 C674.85,430.83 691.00,443.71 696.99,449.33 C703.09,455.08 712.60,467.47 715.39,473.40 C716.80,476.43 719.05,483.21 719.65,486.18 C721.07,493.46 720.46,509.69 718.97,517.63 C718.11,522.11 715.90,528.79 713.75,532.41 C711.69,535.80 706.28,540.55 703.19,541.75 C699.98,542.94 693.39,543.36 687.84,543.00 C678.77,542.35 666.98,540.12 665.27,540.18 C663.66,540.28 660.61,541.37 659.11,542.37 C657.65,543.40 655.06,546.16 653.99,547.87 C653.28,549.01 650.31,554.83 649.85,555.57 C649.00,556.90 647.57,557.69 647.00,557.28 C645.61,556.03 645.31,535.95 644.83,528.09 C644.31,520.52 642.06,507.07 643.06,500.47 C643.63,496.86 646.09,488.17 646.42,486.18 C646.94,483.00 647.02,474.66 646.69,471.54 C646.39,468.80 644.59,459.95 644.32,456.66 C643.71,448.73 646.27,435.43 647.43,431.93 C648.25,429.59 650.06,426.57 651.39,425.45 C652.76,424.37 655.89,423.47 657.87,423.47 Z" fill="none" stroke="rgb(0, 0, 0)" stroke-width="3.00" stroke-opacity="1.00" stroke-linejoin="miter"/>
</g>
<g stroke-linecap="round" transform="translate(-527.00, -34.00)" id="Body_Outline">
<path d="M723.36,52.89 C721.03,53.01 715.46,54.44 711.00,55.93 C707.79,57.03 699.03,61.69 697.60,62.62 C694.26,64.83 689.91,69.92 688.04,73.24 C686.15,76.72 684.05,83.31 683.69,88.24 C683.22,95.12 684.30,110.62 685.68,121.16 C686.70,129.28 688.95,148.35 689.28,153.57 C689.59,158.47 689.44,163.90 688.36,166.72 C687.18,169.69 683.13,174.90 680.25,177.52 C675.29,181.93 658.77,191.90 653.39,194.19 C646.75,196.97 633.12,199.24 625.77,202.15 C622.83,203.33 615.71,206.79 613.17,208.30 C609.93,210.26 603.64,215.50 600.61,218.79 C595.91,223.93 590.21,232.84 582.56,245.92 C580.82,248.76 575.50,257.17 574.41,258.66 C574.33,258.77 568.16,265.49 566.39,268.32 C562.08,275.39 557.49,285.47 554.19,294.89 C550.80,305.39 547.43,318.70 546.13,326.85 C545.14,333.51 543.53,347.80 542.91,355.50 C541.84,373.44 541.98,403.63 542.45,419.61 C542.96,435.90 542.90,472.11 542.19,485.63 C541.17,501.51 541.21,508.62 542.76,514.43 C543.20,515.98 544.61,519.08 545.67,520.68 C546.78,522.28 549.83,525.03 551.53,525.98 C554.39,527.50 563.05,529.42 566.85,529.69 C570.62,529.91 578.32,527.77 582.11,525.41 C582.81,524.96 590.42,519.78 594.10,516.71 C596.11,514.98 597.63,513.28 598.09,511.92 C599.00,509.06 598.44,500.71 597.86,496.98 C596.99,491.70 594.35,484.92 592.12,482.42 C590.98,481.20 588.30,479.28 586.84,478.65 C585.23,477.97 581.31,477.36 580.20,477.04 C578.65,476.56 576.09,474.42 575.28,472.86 C573.91,470.08 573.22,463.46 573.32,460.58 C573.53,455.08 583.71,400.18 584.37,394.44 C584.70,391.48 584.99,383.25 584.48,380.46 C584.31,379.52 582.57,375.06 582.62,374.12 C582.71,372.84 584.04,370.13 584.98,369.02 C587.12,366.62 593.87,361.05 595.45,359.47 C600.58,354.30 610.34,340.31 615.92,330.66 C618.10,326.82 622.20,318.82 622.42,318.18 C623.04,316.45 623.40,312.54 623.74,311.57 C624.14,310.45 625.03,311.04 625.97,312.85 C626.08,313.05 639.06,337.48 641.18,341.85 C643.28,346.19 646.73,354.10 648.06,357.63 C649.66,361.94 651.99,370.42 652.28,374.57 C652.51,378.46 650.15,385.79 649.76,387.70 C649.15,390.71 649.04,397.58 649.79,400.89 C649.99,401.77 651.57,407.14 651.82,408.37 C652.53,412.07 651.84,418.96 650.67,422.97 C649.79,425.85 646.09,434.71 645.23,437.36 C644.13,440.80 643.04,447.23 643.17,450.17 C643.24,451.79 644.43,459.42 643.58,464.56 C642.79,469.16 638.19,485.43 635.89,492.75 C633.08,501.13 627.40,518.18 624.81,526.46 C622.52,534.38 618.17,551.39 616.91,558.59 C615.33,567.76 614.64,579.23 614.68,589.94 C614.80,596.31 615.59,612.48 616.09,617.09 C616.87,624.09 619.86,636.10 622.44,643.55 C624.54,649.36 630.14,663.93 631.14,670.10 C632.36,678.04 631.68,694.46 630.70,701.73 C629.86,707.82 626.79,722.73 624.25,732.91 C622.18,741.31 619.50,758.18 618.94,766.47 C618.41,774.53 618.78,791.58 619.80,800.10 C621.34,812.61 630.78,848.17 633.86,861.05 C636.70,874.19 639.07,889.55 638.57,894.74 C638.26,897.63 636.35,903.45 634.42,906.12 C632.25,909.03 623.80,914.34 622.11,915.41 C621.12,916.03 618.34,917.90 617.00,918.89 C614.50,920.81 612.57,923.05 612.75,924.41 C613.00,925.88 614.73,927.73 616.47,928.66 C626.26,933.59 640.08,939.36 646.23,940.64 C651.62,941.71 659.46,941.55 663.53,940.58 C667.36,939.59 670.12,937.54 670.47,936.41 C670.75,935.38 669.87,931.77 669.86,927.74 C669.81,923.14 671.82,902.52 670.84,896.56 C670.44,894.22 668.11,888.69 667.78,885.23 C667.37,880.65 668.11,864.87 668.73,856.91 C669.65,847.00 672.28,831.98 674.38,824.72 C675.54,820.77 678.24,813.26 679.80,809.67 C681.48,805.84 686.12,797.19 686.71,795.98 C688.30,792.69 690.71,785.23 691.44,781.35 C692.76,774.11 692.39,757.87 690.84,749.19 C690.15,745.38 684.92,722.40 684.05,716.56 C683.54,713.02 682.88,705.74 682.92,702.51 C683.01,696.67 686.11,688.39 689.91,675.78 C693.95,661.28 702.52,629.37 707.06,611.97 C709.01,603.47 712.18,587.68 713.39,580.39 C715.13,568.50 716.11,551.78 715.26,543.74 C714.40,535.64 714.65,529.18 715.07,526.23 C715.29,524.71 716.30,522.89 717.62,521.97 C718.89,521.14 722.89,520.59 724.93,520.88 C726.88,521.20 729.48,522.98 730.23,524.35 C730.47,524.84 731.21,531.22 731.18,534.23 C731.12,537.48 729.48,556.62 730.39,567.27 C731.04,574.75 734.10,592.69 735.70,600.45 C739.15,615.62 758.56,686.62 759.38,689.26 C760.18,691.79 763.26,699.40 763.43,700.00 C764.17,702.74 763.65,708.85 762.98,713.46 C761.93,719.84 757.46,742.86 757.14,744.78 C755.65,753.73 754.75,770.58 755.36,778.64 C756.02,786.91 759.26,800.42 762.67,809.48 C765.11,816.24 769.67,829.28 772.11,836.97 C774.88,846.04 778.27,860.98 778.87,867.41 C779.20,871.25 778.88,878.46 777.74,882.71 C776.54,887.11 775.65,893.14 775.95,896.21 C776.13,898.00 778.25,906.24 778.05,912.01 C777.93,914.99 777.04,921.44 775.95,927.07 C775.09,931.81 775.58,937.95 776.96,939.92 C777.78,941.00 780.05,942.43 781.57,942.77 C785.51,943.57 804.54,939.77 815.58,936.29 C822.56,933.97 828.61,931.61 830.88,929.99 C831.91,929.21 833.21,927.56 833.34,926.77 C833.46,925.70 832.62,923.62 831.57,922.51 C829.82,920.74 819.73,915.34 816.96,913.06 C813.75,910.37 809.82,904.67 808.62,901.68 C807.56,898.96 806.45,892.97 806.37,889.58 C806.27,883.00 808.37,868.28 810.57,856.96 C812.88,846.27 823.01,808.43 824.63,794.51 C825.52,786.69 825.80,769.66 825.03,761.56 C824.61,757.36 823.29,749.05 822.38,744.96 C821.59,741.42 816.21,721.21 814.96,714.15 C813.68,706.83 812.44,690.71 813.28,682.53 C813.89,676.97 818.38,660.52 820.24,653.92 C822.31,647.23 827.71,630.36 828.23,627.91 C829.64,621.09 830.51,606.19 830.48,597.49 C830.27,589.05 829.06,570.01 828.35,563.62 C827.18,554.45 824.19,539.50 822.07,532.40 C817.73,518.58 806.17,482.08 804.76,476.00 C803.96,472.53 802.73,465.06 802.55,461.50 C802.43,459.04 802.79,450.71 802.50,447.06 C801.88,439.83 796.73,423.51 796.24,419.06 C795.81,414.80 797.25,406.82 797.35,404.57 C797.61,398.21 794.67,380.24 794.48,374.41 C794.39,371.01 794.93,363.63 795.50,360.89 C796.95,354.20 804.30,340.69 809.59,332.84 C814.39,325.74 819.72,316.50 820.39,314.13 C820.70,313.08 821.40,309.93 821.99,310.40 C822.52,310.89 832.62,332.61 834.96,336.89 C836.97,340.55 841.54,347.54 844.13,350.82 C847.11,354.56 855.82,361.67 856.19,361.98 C858.55,363.90 862.32,368.50 862.97,370.98 C863.46,373.06 861.32,379.73 861.48,383.83 C861.76,390.29 864.30,403.91 867.00,415.28 C869.10,423.99 872.80,441.83 873.45,448.19 C873.98,453.56 873.63,461.31 872.86,464.58 C872.06,467.72 869.02,472.89 866.60,474.30 C865.70,474.81 862.42,476.34 861.01,477.40 C858.35,479.43 854.06,484.73 852.19,488.20 C850.31,491.76 847.98,499.08 847.65,502.66 C847.50,504.39 847.55,508.51 847.77,510.10 C848.08,512.15 849.33,515.46 850.44,517.02 C852.54,519.88 858.81,523.85 862.38,525.22 C866.27,526.69 874.42,528.51 878.37,528.78 C880.48,528.90 884.06,528.58 886.23,528.05 C890.00,527.08 895.64,523.23 899.10,520.26 C900.46,519.05 902.13,516.86 902.75,515.37 C903.51,513.45 902.06,493.60 901.94,490.71 C901.61,482.33 903.80,441.02 904.87,424.89 C905.29,416.73 905.71,401.23 905.70,392.94 C905.43,382.32 904.57,369.52 903.54,360.08 C901.41,342.74 896.41,313.48 894.02,304.74 C892.21,298.10 887.03,279.26 885.23,274.82 C883.74,271.25 880.48,266.67 878.02,264.88 C873.92,261.88 864.30,248.64 859.08,240.89 C851.21,228.72 844.77,219.49 839.97,214.03 C837.20,210.93 830.26,204.96 826.75,203.21 C823.33,201.56 807.70,197.89 799.64,196.84 C795.79,196.31 789.69,194.32 786.97,192.71 C784.55,191.25 778.06,185.35 776.16,183.94 C773.76,182.17 768.76,178.83 764.62,176.51 C761.27,174.57 757.59,170.34 756.53,167.72 C755.57,165.23 754.68,159.77 754.70,156.24 C754.78,149.56 757.36,131.89 758.66,124.18 C761.43,108.95 762.92,98.36 762.72,91.37 C762.58,87.47 761.22,79.41 759.60,75.72 C757.76,71.68 753.46,67.18 749.11,63.67 C746.85,61.86 740.60,57.39 737.00,55.67 C733.65,54.12 725.64,52.79 723.36,52.89 Z" fill="none" stroke="rgb(0, 0, 0)" stroke-width="3.00" stroke-opacity="1.00" stroke-linejoin="miter"/>
</g>
</svg>
